<svg t="1696771398981" class="icon" viewBox="0 0 1024 1024" version="1.1" xmlns="http://www.w3.org/2000/svg" p-id="3564" width="200" height="200"><path d="M525.9264 156.8768L489.813333 213.7088 854.357333 832.238933l77.2096-135.850666c7.543467-13.277867 6.212267-29.7984-3.3792-41.642667L525.9264 156.8768z" fill="#FFD88E" p-id="3565"></path><path d="M525.9264 156.8768l402.261333 497.8688c8.533333 10.5472 10.5472 24.746667 5.563734 37.102933l-2.184534 4.539734-77.2096 135.850666L489.813333 213.7088l36.078934-56.832z m3.072 54.613333l-1.7408 2.798934 326.587733 554.222933 50.005334-87.893333a5.188267 5.188267 0 0 0 0.3072-4.471467l-0.785067-1.365333L529.032533 211.490133z" fill="#333333" p-id="3566"></path><path d="M492.202667 162.030933c19.933867 3.447467 23.04 6.5536 25.019733 10.3424l336.213333 640.341334-700.040533 15.189333L479.778133 172.373333a21.0944 21.0944 0 0 1 12.424534-10.3424z" fill="#FFE4AE" p-id="3567"></path><path d="M515.754667 149.367467c6.656 3.4816 12.0832 8.942933 15.598933 15.598933l348.16 663.1424a11.127467 11.127467 0 0 1-9.864533 16.315733H127.351467a11.127467 11.127467 0 0 1-9.864534-16.315733l30.378667-57.890133h610.474667c1.194667 0 2.389333-0.170667 3.515733-0.580267l1.672533-0.682667c5.461333-2.8672 7.509333-9.591467 4.676267-15.018666l-305.902933-582.656 3.345066-6.314667a37.102933 37.102933 0 0 1 50.107734-15.598933z" fill="#ECC67D" p-id="3568"></path><path d="M515.754667 149.367467c6.656 3.4816 12.0832 8.942933 15.598933 15.598933l348.16 663.1424a11.127467 11.127467 0 0 1-9.864533 16.315733H127.351467a11.127467 11.127467 0 0 1-9.864534-16.315733l348.16-663.1424a37.102933 37.102933 0 0 1 50.107734-15.598933z m-14.848 28.2624a5.188267 5.188267 0 0 0-6.007467 0.853333l-1.024 1.3312-332.151467 632.695467h673.553067L503.0912 179.8144l-0.9216-1.262933-1.262933-0.9216z" fill="#333333" p-id="3569"></path><path d="M491.963733 621.806933c51.2 0 92.740267 41.540267 92.740267 92.7744v129.8432H399.223467v-129.8432c0-51.234133 41.506133-92.7744 92.740266-92.7744z" fill="#F4BE59" p-id="3570"></path><path d="M491.963733 621.806933c51.2 0 92.740267 41.540267 92.740267 92.7744v129.8432H399.223467v-129.8432c0-51.234133 41.506133-92.7744 92.740266-92.7744z m0 31.914667c-31.8464 0-57.9584 24.439467-60.6208 55.6032l-0.238933 5.256533v97.962667h121.719467v-97.962667c0-31.8464-24.4736-57.9584-55.637334-60.6208l-5.2224-0.238933z" fill="#333333" p-id="3571"></path><path d="M102.4 733.115733m18.5344 0l0.034133 0q18.5344 0 18.5344 18.5344l0 74.24q0 18.5344-18.5344 18.5344l-0.034133 0q-18.5344 0-18.5344-18.5344l0-74.24q0-18.5344 18.5344-18.5344Z" fill="#333333" p-id="3572"></path><path d="M844.424533 733.115733m18.5344 0l0.034134 0q18.5344 0 18.5344 18.5344l0 74.24q0 18.5344-18.5344 18.5344l-0.034134 0q-18.5344 0-18.5344-18.5344l0-74.24q0-18.5344 18.5344-18.5344Z" fill="#333333" p-id="3573"></path><path d="M925.525333 594.670933c10.24 0 18.568533 8.2944 18.568534 18.568534v74.171733a18.5344 18.5344 0 1 1-37.102934 0v-74.171733c0-10.24 8.2944-18.568533 18.5344-18.568534z" fill="#333333" p-id="3574"></path><path d="M429.192533 353.348267a18.5344 18.5344 0 0 1 33.9968 14.472533l-1.3312 3.072-83.421866 155.306667a18.5344 18.5344 0 0 1-33.9968-14.472534l1.3312-3.072 83.421866-155.306666z" fill="#FFF0D2" p-id="3575"></path></svg>